HIERARCHY
ROOT Hips
{
	OFFSET	0.00	0.00	0.00
	CHANNELS 6 Xposition Yposition Zposition Zrotation Xrotation Yrotation
	JOINT LeftUpLeg
	{
		OFFSET	 0.126116	-0.014019	-0.065224
		CHANNELS 3 Zrotation Xrotation Yrotation
		JOINT LeftLeg
		{
			OFFSET	 0.000000	 0.000000	 0.569914
			CHANNELS 3 Zrotation Xrotation Yrotation
			JOINT LeftFoot
			{
				OFFSET	 0.000000	 0.000000	 0.544423
				CHANNELS 3 Zrotation Xrotation Yrotation
				JOINT LeftToeBase
				{
					OFFSET	 0.000000	 0.000000	 0.207117
					CHANNELS 3 Zrotation Xrotation Yrotation
					End Site
					{
						OFFSET	 0.000000	 0.000000	 0.207117
					}
				}
			}
		}
	}
	JOINT RightUpLeg
	{
		OFFSET	-0.124023	-0.008373	-0.065224
		CHANNELS 3 Zrotation Xrotation Yrotation
		JOINT RightLeg
		{
			OFFSET	 0.000000	 0.000000	 0.570047
			CHANNELS 3 Zrotation Xrotation Yrotation
			JOINT RightFoot
			{
				OFFSET	 0.000000	 0.000000	 0.544354
				CHANNELS 3 Zrotation Xrotation Yrotation
				JOINT RightToeBase
				{
					OFFSET	 0.000000	 0.000000	 0.207540
					CHANNELS 3 Zrotation Xrotation Yrotation
					End Site
					{
						OFFSET	 0.000000	 0.000000	 0.207540
					}
				}
			}
		}
	}
	JOINT Spine
	{
		OFFSET	 0.000184	-0.007763	 0.117403
		CHANNELS 3 Zrotation Xrotation Yrotation
		JOINT Spine1
		{
			OFFSET	 0.000000	 0.000000	 0.137269
			CHANNELS 3 Zrotation Xrotation Yrotation
			JOINT Spine2
			{
				OFFSET	 0.000000	 0.000000	 0.156879
				CHANNELS 3 Zrotation Xrotation Yrotation
				JOINT LeftShoulder
				{
					OFFSET	 0.080501	-0.002496	 0.160144
					CHANNELS 3 Zrotation Xrotation Yrotation
					JOINT LeftArm
					{
						OFFSET	 0.000000	 0.000000	 0.164363
						CHANNELS 3 Zrotation Xrotation Yrotation
						JOINT LeftForeArm
						{
							OFFSET	 0.000000	 0.000000	 0.364576
							CHANNELS 3 Zrotation Xrotation Yrotation
							JOINT LeftHand
							{
								OFFSET	 0.000000	 0.000000	 0.360812
								CHANNELS 3 Zrotation Xrotation Yrotation
								JOINT LeftHandIndex1
								{
									OFFSET	 0.000000	 0.000000	 0.086006
									CHANNELS 3 Zrotation Xrotation Yrotation
									JOINT LeftHandIndex2
									{
										OFFSET	 0.000000	 0.000000	 0.047236
										CHANNELS 3 Zrotation Xrotation Yrotation
										JOINT LeftHandIndex3
										{
											OFFSET	-0.004284	-0.000551	 0.038166
											CHANNELS 3 Zrotation Xrotation Yrotation
											End Site
											{
												OFFSET	-0.004284	-0.000551	 0.038166
											}
										}
									}
								}
							}
						}
					}
				}
				JOINT Neck
				{
					OFFSET	 0.000000	 0.000000	 0.176489
					CHANNELS 3 Zrotation Xrotation Yrotation
					JOINT Head
					{
						OFFSET	 0.000000	-0.001747	 0.077940
						CHANNELS 3 Zrotation Xrotation Yrotation
						End Site
						{
							OFFSET	 0.000000	-0.001747	 0.077940
						}
					}
				}
				JOINT RightShoulder
				{
					OFFSET	-0.080363	 0.000306	 0.159706
					CHANNELS 3 Zrotation Xrotation Yrotation
					JOINT RightArm
					{
						OFFSET	 0.000000	 0.000000	 0.164196
						CHANNELS 3 Zrotation Xrotation Yrotation
						JOINT RightForeArm
						{
							OFFSET	 0.000000	 0.000000	 0.365611
							CHANNELS 3 Zrotation Xrotation Yrotation
							JOINT RightHand
							{
								OFFSET	 0.000000	 0.000000	 0.360648
								CHANNELS 3 Zrotation Xrotation Yrotation
								JOINT RightHandIndex1
								{
									OFFSET	 0.000000	 0.000000	 0.069977
									CHANNELS 3 Zrotation Xrotation Yrotation
									JOINT RightHandIndex2
									{
										OFFSET	 0.000000	 0.000000	 0.052305
										CHANNELS 3 Zrotation Xrotation Yrotation
										JOINT RightHandIndex3
										{
											OFFSET	 0.009002	-0.000782	 0.042196
											CHANNELS 3 Zrotation Xrotation Yrotation
											End Site
											{
												OFFSET	 0.009002	-0.000782	 0.042196
											}
										}
									}
								}
							}
						}
					}
				}
			}
		}
	}
}
MOTION
Frames:    13
Frame Time: 0.03333334
 3.907813	 0.010256	 0.575053	 91.897880	-2.103687	 0.086394	 6.455997	-2.050576	-178.450000	-2.522069	-35.368450	 1.224554	 14.091710	 89.879670	-13.098190	-2.376277	 30.405190	-0.042785	 1.626645	-29.832540	 179.471000	 20.494910	-72.322850	 23.940720	 178.645100	 89.139520	-171.290500	 2.378600	 29.670270	 0.027972	 15.316060	 4.461489	 1.319679	-2.454557	-1.721677	 0.959415	-1.617711	-4.386983	-0.168518	-91.795590	 78.119020	 178.895800	 35.659840	 63.480290	-47.574200	 12.030530	-25.199570	-42.674430	 11.618960	-57.580280	 3.686244	-3.812334	 37.924440	-2.927599	-2.450526	 36.184240	 0.754587	-1.378229	 35.397820	-2.634230	-0.320013	 4.049167	-1.900814	 0.037586	-11.798440	-1.531025	 89.792650	 78.707770	 179.520400	-41.806960	 71.368180	 43.781730	-21.229970	-26.931340	 37.490050	-14.580240	-59.020690	 4.143887	 6.437017	 35.671460	-0.771858	 2.830251	 35.756010	-7.813440	-2.350882	 35.473990	 5.254307
 3.953301	 0.014831	 0.572458	 92.107480	-1.779790	-0.506490	 6.024140	 1.573144	-177.511800	-3.029698	-32.166390	 0.947553	 20.408240	 89.864380	-19.798820	-2.376100	 30.438590	-0.043523	 1.961599	-32.424680	 179.726100	 14.361670	-66.133120	 17.446020	-175.778000	 88.877950	-176.594400	 2.377715	 29.844510	 0.031809	 12.603880	 4.385911	 1.979962	-1.754878	-1.847021	 0.961944	-0.626528	-4.549592	-0.066145	-91.775270	 78.544200	 178.799000	 35.132510	 62.366140	-48.580560	 12.577270	-27.352440	-44.684840	 12.469780	-56.649700	 4.119823	-3.812334	 37.924440	-2.927599	-2.450526	 36.184240	 0.754587	-1.378229	 35.397820	-2.634230	-0.356411	 4.161346	-2.338068	 0.404590	-12.103150	-1.266355	 89.784000	 78.287230	 179.466800	-41.668140	 71.484910	 42.983150	-21.699990	-28.674830	 38.786690	-15.248490	-58.153240	 3.482809	 6.437017	 35.671460	-0.771858	 2.830251	 35.756010	-7.813440	-2.350882	 35.473990	 5.254307
 3.999238	 0.018629	 0.570619	 92.267020	-1.394318	-0.806230	 6.071191	 5.854220	-177.022900	-3.418552	-27.330630	 0.992981	 9.512695	 89.347480	-8.792262	-2.371041	 31.337970	-0.063666	 2.183339	-34.212440	 179.752900	 10.631880	-58.906340	 13.112410	-165.047400	 89.282630	 173.017300	 2.382308	 28.907620	 0.011258	 9.847727	 4.229542	 2.332181	-0.983884	-1.953321	 0.980461	 0.359489	-4.668575	 0.038321	-91.762500	 78.776050	 178.757500	 34.737970	 61.387300	-49.516650	 12.839840	-29.078910	-46.304630	 12.849190	-55.256750	 4.343090	-3.812334	 37.924440	-2.927599	-2.450526	 36.184240	 0.754587	-1.378229	 35.397820	-2.634230	-0.361115	 4.295171	-2.668380	 0.705699	-12.350890	-1.141803	 89.778660	 78.056650	 179.447300	-41.583880	 71.644310	 42.485450	-22.287060	-30.067430	 39.507480	-15.999250	-56.795230	 2.962488	 6.437017	 35.671460	-0.771858	 2.830251	 35.756010	-7.813440	-2.350882	 35.473990	 5.254307
 4.051330	 0.021870	 0.568941	 92.421490	-0.904297	-1.000478	 6.913457	 11.536950	-176.959300	-3.682544	-19.676660	 1.353185	 5.123519	 87.212100	-3.267514	-2.359587	 33.144810	-0.105020	 2.600171	-35.236370	 179.698500	 7.792188	-50.636820	 9.704871	-144.556000	 89.567950	 152.761000	 2.388805	 27.400100	-0.021245	 6.790752	 3.930829	 2.548621	-0.036877	-2.116988	 1.052530	 1.504118	-4.762310	 0.161570	-91.755650	 78.895290	 178.749500	 34.404800	 60.626920	-50.334220	 13.198600	-30.650140	-47.458660	 13.151950	-53.163730	 4.327256	-3.812334	 37.924440	-2.927599	-2.450526	 36.184240	 0.754587	-1.378229	 35.397820	-2.634230	-0.270302	 4.395688	-2.967959	 1.053154	-12.502360	-1.028024	 89.776030	 77.938740	 179.456500	-41.448730	 71.897110	 42.156760	-23.187580	-31.132430	 39.522930	-16.951300	-54.754140	 2.575263	 6.437017	 35.671460	-0.771858	 2.830251	 35.756010	-7.813440	-2.350882	 35.473990	 5.254307
 4.115487	 0.025376	 0.565698	 92.767940	-0.787044	-1.264421	 8.256633	 18.755090	-176.857900	-4.015677	-11.619170	 1.575755	 3.598338	 84.112980	 0.273100	-2.331494	 36.706430	-0.190609	 3.172848	-35.860600	 179.780600	 4.692687	-42.199610	 6.430958	-160.609100	 89.421220	 168.178300	 2.379503	 29.489160	 0.023985	 2.981474	 3.733939	 2.721495	 1.090367	-2.243418	 1.180666	 2.904008	-4.812788	 0.313258	-91.752640	 78.940180	 178.724400	 34.420120	 60.261250	-51.333390	 13.852770	-32.032390	-47.844080	 13.454840	-49.966640	 4.002042	-3.812334	 37.924440	-2.927599	-2.450526	 36.184240	 0.754587	-1.378229	 35.397820	-2.634230	-0.136596	 4.354354	-3.211962	 1.521255	-12.432050	-0.778139	 89.774520	 77.892950	 179.419100	-41.239950	 72.299000	 42.026780	-24.760380	-31.672900	 38.419670	-18.297230	-51.612080	 2.379745	 6.437017	 35.671460	-0.771858	 2.830251	 35.756010	-7.813440	-2.350882	 35.473990	 5.254307
 4.153008	 0.026048	 0.564377	 93.112360	-0.854473	-1.293040	 8.305143	 20.616770	-177.371900	-3.711808	-11.612720	 1.623428	 4.014561	 84.078050	 0.084208	-2.309891	 38.919880	-0.247047	 3.237293	-35.590060	 179.719400	 3.461372	-39.042710	 5.194247	-170.653500	 89.178130	 177.644500	 2.372016	 30.903020	 0.055361	 0.667895	 3.844652	 2.593751	 1.661087	-2.259362	 1.220636	 3.670886	-4.802750	 0.395718	-91.756030	 78.876050	 178.701600	 34.785950	 60.306220	-52.037810	 14.456610	-32.552550	-47.525440	 13.639110	-47.827210	 3.690794	-3.812334	 37.924440	-2.927599	-2.450526	 36.184240	 0.754587	-1.378229	 35.397820	-2.634230	-0.110567	 4.265011	-3.248535	 1.781541	-12.288510	-0.553938	 89.775220	 77.953040	 179.348500	-40.918730	 72.594290	 41.776170	-25.687440	-31.752350	 37.556860	-19.087260	-49.498090	 2.394793	 6.437017	 35.671460	-0.771858	 2.830251	 35.756010	-7.813440	-2.350882	 35.473990	 5.254307
 4.221430	 0.026432	 0.562143	 93.686560	-0.974412	-1.248231	 8.503729	 23.942300	-178.618500	-2.695327	-11.589190	 1.785507	 5.074783	 82.730770	-0.113653	-2.262162	 42.865730	-0.355311	 3.065669	-34.656590	 179.430900	 3.001294	-37.350200	 4.597269	 175.292800	 89.307040	-168.678100	 2.369292	 31.373190	 0.065955	-3.199240	 3.839625	 2.269822	 2.590686	-2.172908	 1.214638	 4.880766	-4.681111	 0.521135	-91.762080	 78.762600	 178.653300	 35.734090	 60.839610	-52.891430	 15.883810	-32.903540	-46.064500	 13.992030	-43.785970	 2.998246	-3.812334	 37.924440	-2.927599	-2.450526	 36.184240	 0.754587	-1.378229	 35.397820	-2.634230	-0.106800	 4.163428	-3.235655	 2.164163	-11.963110	-0.059618	 89.778050	 78.068300	 179.297500	-39.776440	 73.185120	 40.548110	-27.116120	-31.622530	 36.021180	-20.356590	-45.516040	 2.606174	 6.437017	 35.671460	-0.771858	 2.830251	 35.756010	-7.813440	-2.350882	 35.473990	 5.254307
 4.272201	 0.025826	 0.560392	 94.014790	-1.111964	-1.149675	 8.831281	 26.214550	-179.737600	-2.022557	-11.571690	 1.896989	 5.501287	 80.658170	 0.139998	-2.212345	 46.111980	-0.453584	 2.913902	-33.725140	 179.053000	 3.884795	-38.460990	 5.238733	 19.692660	 89.560760	-12.616300	 2.375991	 30.173900	 0.039100	-5.729193	 3.500007	 2.073636	 3.260597	-2.061131	 1.158060	 5.683100	-4.500991	 0.598063	-91.763550	 78.732920	 178.616400	 36.506780	 61.523630	-53.024190	 17.018100	-32.723740	-44.528710	 14.198900	-40.789460	 2.448859	-3.812334	 37.924440	-2.927599	-2.450526	 36.184240	 0.754587	-1.378229	 35.397820	-2.634230	-0.059816	 4.222658	-3.280674	 2.412451	-11.712660	 0.404901	 89.779400	 78.106220	 179.337000	-38.613940	 73.567170	 39.083330	-28.042580	-31.378660	 34.990070	-21.154580	-42.540290	 2.865391	 6.437017	 35.671460	-0.771858	 2.830251	 35.756010	-7.813440	-2.350882	 35.473990	 5.254307
 4.334787	 0.024627	 0.558864	 94.538230	-1.404116	-0.942136	 9.374427	 28.723400	 178.645600	-1.186114	-11.550160	 2.025590	 5.748767	 76.477050	 0.824321	-2.151867	 49.306500	-0.560671	 2.291853	-32.316940	 178.256600	 6.184930	-40.889850	 6.783049	 7.187191	 87.336110	 0.920129	 2.386915	 27.863130	-0.011327	-8.695436	 3.030569	 1.701275	 4.013601	-1.889073	 1.053417	 6.610000	-4.191136	 0.678054	-91.768650	 78.645600	 178.559400	 37.428360	 62.648570	-52.569600	 18.346460	-32.327960	-42.623750	 14.506410	-37.042190	 1.733104	-3.812334	 37.924440	-2.927599	-2.450526	 36.184240	 0.754587	-1.378229	 35.397820	-2.634230	 0.000266	 4.419313	-3.218667	 2.722877	-11.382850	 0.900649	 89.782170	 78.204220	 179.363600	-36.808670	 73.928310	 36.706270	-29.013360	-30.974620	 33.872910	-21.980390	-38.832070	 3.267932	 6.437017	 35.671460	-0.771858	 2.830251	 35.756010	-7.813440	-2.350882	 35.473990	 5.254307
 4.403911	 0.024027	 0.559421	 95.164250	-1.993039	-0.802519	 10.009470	 31.152430	 177.107400	-1.527760	-11.435300	 1.924335	 5.239646	 68.908680	 1.431874	-2.118439	 50.822440	-0.615878	 1.658165	-30.753390	 177.597500	 7.103104	-43.922720	 7.537562	 6.310469	 84.941850	 1.582114	 2.396062	 25.329150	-0.064913	-11.793140	 2.787132	 1.305606	 4.824491	-1.680268	 0.992839	 7.599100	-3.826998	 0.755800	-91.777500	 78.506610	 178.531000	 38.286740	 64.238820	-51.478940	 19.555690	-31.740480	-40.601860	 14.924640	-32.805600	 0.917497	-3.812334	 37.924440	-2.927599	-2.450526	 36.184240	 0.754587	-1.378229	 35.397820	-2.634230	 0.114440	 4.510753	-3.097525	 3.052159	-10.856620	 1.297053	 89.786030	 78.347580	 179.366400	-35.073860	 74.143670	 34.448530	-29.869180	-30.455470	 32.837410	-22.722770	-34.616170	 3.798752	 6.437017	 35.671460	-0.771858	 2.830251	 35.756010	-7.813440	-2.350882	 35.473990	 5.254307
 4.464846	 0.018590	 0.565590	 95.762150	-2.335632	-1.445374	 7.507864	 21.817950	 176.779300	-0.886512	-31.827840	 1.947596	 3.438400	 65.747920	 0.245460	-2.156312	 49.093540	-0.553150	 1.373242	-28.843130	 177.711200	 7.201459	-46.318000	 7.805923	 6.074803	 84.592490	 1.365603	 2.403957	 21.976110	-0.133585	-14.731880	 2.507694	 1.913790	 5.575762	-1.563345	 1.160493	 8.526585	-3.533473	 0.826650	-91.763810	 78.713460	 178.500700	 38.086070	 66.129430	-49.190950	 20.449470	-31.087110	-38.644190	 15.600430	-28.289910	 0.044316	-3.812334	 37.924440	-2.927599	-2.450526	 36.184240	 0.754587	-1.378229	 35.397820	-2.634230	 0.230732	 4.366515	-3.371763	 3.382878	-10.083130	 1.469204	 89.780540	 78.144030	 179.378600	-34.054990	 74.148410	 33.208780	-30.703450	-29.968330	 31.979410	-23.503840	-30.113810	 4.430086	 6.437017	 35.671460	-0.771858	 2.830251	 35.756010	-7.813440	-2.350882	 35.473990	 5.254307
 4.521760	 0.014516	 0.570970	 96.676060	-2.926738	-0.712899	 7.568097	 15.469000	 174.238200	-0.993978	-46.161670	 1.348330	 2.224992	 59.333050	 0.581931	-2.263442	 42.772280	-0.352621	 0.645859	-25.351400	 176.532300	 7.709911	-46.645710	 7.694419	 6.225819	 85.602830	 1.065968	 2.407332	 18.875390	-0.195339	-17.700880	 2.780252	 1.001030	 6.131708	-1.440461	 1.034909	 9.276466	-3.306491	 0.881378	-91.786380	 78.369170	 178.514500	 37.131720	 67.843380	-46.550650	 20.680960	-30.384820	-37.129140	 16.079430	-23.949420	-0.796748	-3.812334	 37.924440	-2.927599	-2.450526	 36.184240	 0.754587	-1.378229	 35.397820	-2.634230	 0.196432	 3.890437	-3.123482	 3.576926	-9.252600	 1.449839	 89.790910	 78.478480	 179.257500	-33.816620	 73.945390	 33.047570	-31.092390	-29.886170	 31.760070	-24.070110	-25.773080	 5.100133	 6.437017	 35.671460	-0.771858	 2.830251	 35.756010	-7.813440	-2.350882	 35.473990	 5.254307
 4.579097	 0.010427	 0.576750	 97.725070	-3.458841	 1.569735	 7.081267	 8.244683	 170.817700	-2.052134	-59.393150	-0.974749	 0.177019	 55.046860	 1.413384	-2.330809	 36.781740	-0.192492	-0.189245	-20.863420	 173.878400	 8.256295	-45.014460	 7.046692	 6.181684	 86.315070	 0.974570	 2.407656	 17.069100	-0.230716	-20.864910	 3.109846	-1.506247	 6.730780	-1.341227	 0.566622	 9.967144	-3.158528	 0.934510	-91.837480	 77.477100	 178.608600	 36.085580	 69.243190	-44.085820	 20.271050	-29.555510	-36.035990	 16.073690	-19.276500	-1.704110	-3.812334	 37.924440	-2.927599	-2.450526	 36.184240	 0.754587	-1.378229	 35.397820	-2.634230	 0.130887	 3.355103	-2.232714	 3.594324	-8.747619	 1.217365	 89.825330	 79.355860	 179.163300	-34.208990	 73.496410	 33.829520	-30.928470	-30.117240	 32.129850	-24.335940	-21.088700	 5.876126	 6.437017	 35.671460	-0.771858	 2.830251	 35.756010	-7.813440	-2.350882	 35.473990	 5.254307
